# xmcd
#
# Track frame offsets: 
#        150
#        14442
#        32335
#        50097
#        67392
#        83682
#        96065
#        109707
#        123612
#        133652
#        148417
#        169905
#        191010
#
# Disc length: 2773 seconds
#
# Revision: 0
# Processed by: cddbd v1.5.1PL0 Copyright (c) Steve Scherf et al.
# Submitted via: ExactAudioCopy v0.95a5
#
DISCID=c00ad30d
DTITLE=The High Strung Band - Six of One - Half Dozen of Another
DYEAR=1993
DGENRE=Bluegrass
TTITLE0=It's Not So Easy To Lose A Memory (Perley Curtis and Bonnie Ludw
TTITLE0=ick)
TTITLE1=Summerfly (Cheryl Wheeler)
TTITLE2=Early Morning Rain (Gordon Lightfoot)
TTITLE3=I Bid You Goodnight (Trad. Bahamian Hymn)
TTITLE4=You Don't Have To Move That Mountain (Keith Whitley)
TTITLE5=Beaumont Rag (Trad.)
TTITLE6=When Halley Came To Jackson (Mary-Chapin Carpenter)
TTITLE7=Darby's Castle (Kris Kristofferson)
TTITLE8=You Don't Knock (W. Westbrook and C.A. Walton)
TTITLE9=Little White Church (Trad.)
TTITLE10=Ozone Hole (Bill Edwards and Tracy Walton)
TTITLE11=Carpenter Of Wood (B.J. Brown)
TTITLE12=Holy City (E. Burns and S. Newkirk)
EXTD=
EXTT0=
EXTT1=
EXTT2=
EXTT3=
EXTT4=
EXTT5=
EXTT6=
EXTT7=
EXTT8=
EXTT9=
EXTT10=
EXTT11=
EXTT12=
PLAYORDER=
